<?xml version="1.0" encoding="UTF-8" standalone="no"?>
<svg
   version="1.1"
   x="0px"
   y="0px"
   viewBox="0 0 1080 1080"
   style="enable-background:new 0 0 1080 1080;"
   xml:space="preserve"
   id="svg340"
   sodipodi:docname="playw.svg"
   inkscape:version="1.1 (c4e8f9ed74, 2021-05-24)"
   xmlns:inkscape="http://www.inkscape.org/namespaces/inkscape"
   xmlns:sodipodi="http://sodipodi.sourceforge.net/DTD/sodipodi-0.dtd"
   xmlns="http://www.w3.org/2000/svg"
   xmlns:svg="http://www.w3.org/2000/svg"
   xmlns:rdf="http://www.w3.org/1999/02/22-rdf-syntax-ns#"
   xmlns:cc="http://creativecommons.org/ns#"
   xmlns:dc="http://purl.org/dc/elements/1.1/"><metadata
   id="metadata346"><rdf:RDF><cc:Work
       rdf:about=""><dc:format>image/svg+xml</dc:format><dc:type
         rdf:resource="http://purl.org/dc/dcmitype/StillImage" /></cc:Work></rdf:RDF></metadata><defs
   id="defs344">
		
		
		
	</defs><sodipodi:namedview
   pagecolor="#ffffff"
   bordercolor="#666666"
   borderopacity="1"
   objecttolerance="10"
   gridtolerance="10"
   guidetolerance="10"
   inkscape:pageopacity="0"
   inkscape:pageshadow="2"
   inkscape:window-width="1600"
   inkscape:window-height="841"
   id="namedview342"
   showgrid="false"
   inkscape:zoom="0.62592593"
   inkscape:cx="543.19526"
   inkscape:cy="530.4142"
   inkscape:window-x="0"
   inkscape:window-y="0"
   inkscape:window-maximized="1"
   inkscape:current-layer="g1503"
   inkscape:document-rotation="0"
   inkscape:pagecheckerboard="0" />
<style
   type="text/css"
   id="style2">
	.st0{fill:#FFFFFF;}
	.st1{display:none;}
	.st2{display:inline;}
	.st3{fill:none;stroke:url(#SVGID_1_);stroke-width:10;stroke-miterlimit:10;}
	.st4{fill:none;stroke:url(#SVGID_2_);stroke-width:10;stroke-miterlimit:10;}
	.st5{fill:none;stroke:url(#SVGID_3_);stroke-width:10;stroke-miterlimit:10;}
	.st6{fill:none;stroke:url(#SVGID_4_);stroke-width:10;stroke-miterlimit:10;}
	.st7{fill:none;stroke:url(#SVGID_5_);stroke-width:10;stroke-miterlimit:10;}
	.st8{fill:none;stroke:url(#SVGID_6_);stroke-width:10;stroke-miterlimit:10;}
	.st9{fill:none;stroke:url(#SVGID_7_);stroke-width:10;stroke-miterlimit:10;}
	.st10{fill:none;stroke:url(#SVGID_8_);stroke-width:10;stroke-miterlimit:10;}
	.st11{fill:none;stroke:url(#SVGID_9_);stroke-width:10;stroke-miterlimit:10;}
	.st12{fill:none;stroke:url(#SVGID_10_);stroke-width:10;stroke-miterlimit:10;}
	.st13{fill:none;stroke:url(#SVGID_11_);stroke-width:10;stroke-miterlimit:10;}
	.st14{fill:none;stroke:url(#SVGID_12_);stroke-width:10;stroke-miterlimit:10;}
	.st15{fill:none;stroke:url(#SVGID_13_);stroke-width:10;stroke-miterlimit:10;}
	.st16{fill:none;stroke:url(#SVGID_14_);stroke-width:10;stroke-miterlimit:10;}
	.st17{fill:none;stroke:url(#SVGID_15_);stroke-width:10;stroke-miterlimit:10;}
	.st18{fill:none;stroke:url(#SVGID_16_);stroke-width:10;stroke-miterlimit:10;}
	.st19{fill:none;stroke:url(#SVGID_17_);stroke-width:10;stroke-miterlimit:10;}
	.st20{fill:none;stroke:url(#SVGID_18_);stroke-width:10;stroke-miterlimit:10;}
	.st21{fill:none;stroke:url(#SVGID_19_);stroke-width:10;stroke-miterlimit:10;}
	.st22{fill:none;stroke:url(#SVGID_20_);stroke-width:10;stroke-miterlimit:10;}
	.st23{fill:none;stroke:url(#SVGID_21_);stroke-width:10;stroke-miterlimit:10;}
</style>

<g
   id="lineal"
   class="st1">
	<g
   class="st2"
   id="g322">
		<g
   id="g20">
			<linearGradient
   id="SVGID_1_"
   gradientUnits="userSpaceOnUse"
   x1="1503.1235"
   y1="1640"
   x2="-423.1235"
   y2="1640">
				<stop
   offset="0"
   style="stop-color:#93278F"
   id="stop7" />
				<stop
   offset="0.2789"
   style="stop-color:#FF1D25"
   id="stop9" />
				<stop
   offset="0.5352"
   style="stop-color:#FF931E"
   id="stop11" />
				<stop
   offset="0.7563"
   style="stop-color:#FFFFFF"
   id="stop13" />
				<stop
   offset="1"
   style="stop-color:#3FA9F5"
   id="stop15" />
			</linearGradient>
			<path
   class="st3"
   d="M-420,2180c5-4,11-7,17-11c24-18,46-30,70-48c2-1,3-1,5-2c278-184,542-329,834-463c1-1,3-2,4-3     c20-9,40-17,60-26c1-1,3-2,4-3c14-6,27-11,41-18c21-11,42-19,63-31c8-4,15-7,23-10c106-52,206-104,310-162     c138-78,262-151,397-242c2-1,3-1,5-2c24-18,46-30,70-48c6-4,12-7,17-11"
   id="path18" />
		</g>
		<g
   id="g35">
			<linearGradient
   id="SVGID_2_"
   gradientUnits="userSpaceOnUse"
   x1="1503.1235"
   y1="1585"
   x2="-423.1235"
   y2="1585">
				<stop
   offset="0"
   style="stop-color:#93278F"
   id="stop22" />
				<stop
   offset="0.2789"
   style="stop-color:#FF1D25"
   id="stop24" />
				<stop
   offset="0.5352"
   style="stop-color:#FF931E"
   id="stop26" />
				<stop
   offset="0.7563"
   style="stop-color:#FFFFFF"
   id="stop28" />
				<stop
   offset="1"
   style="stop-color:#3FA9F5"
   id="stop30" />
			</linearGradient>
			<path
   class="st4"
   d="M-420,2125c5-4,11-7,17-11c24-18,46-30,70-48c2-1,3-1,5-2c278-184,542-329,834-463c1-1,3-2,4-3     c20-9,40-17,60-26c1-1,3-2,4-3c14-6,27-11,41-18c21-11,42-19,63-31c8-4,15-7,23-10c106-52,206-104,310-162     c138-78,262-151,397-242c2-1,3-1,5-2c24-18,46-30,70-48c6-4,12-7,17-11"
   id="path33" />
		</g>
		<g
   id="g50">
			<linearGradient
   id="SVGID_3_"
   gradientUnits="userSpaceOnUse"
   x1="1503.1235"
   y1="1530"
   x2="-423.1235"
   y2="1530">
				<stop
   offset="0"
   style="stop-color:#93278F"
   id="stop37" />
				<stop
   offset="0.2789"
   style="stop-color:#FF1D25"
   id="stop39" />
				<stop
   offset="0.5352"
   style="stop-color:#FF931E"
   id="stop41" />
				<stop
   offset="0.7563"
   style="stop-color:#FFFFFF"
   id="stop43" />
				<stop
   offset="1"
   style="stop-color:#3FA9F5"
   id="stop45" />
			</linearGradient>
			<path
   class="st5"
   d="M-420,2070c5-4,11-7,17-11c24-18,46-30,70-48c2-1,3-1,5-2c278-184,542-329,834-463c1-1,3-2,4-3     c20-9,40-17,60-26c1-1,3-2,4-3c14-6,27-11,41-18c21-11,42-19,63-31c8-4,15-7,23-10c106-52,206-104,310-162     c138-78,262-151,397-242c2-1,3-1,5-2c24-18,46-30,70-48c6-4,12-7,17-11"
   id="path48" />
		</g>
		<g
   id="g65">
			<linearGradient
   id="SVGID_4_"
   gradientUnits="userSpaceOnUse"
   x1="1503.1235"
   y1="1475"
   x2="-423.1235"
   y2="1475">
				<stop
   offset="0"
   style="stop-color:#93278F"
   id="stop52" />
				<stop
   offset="0.2789"
   style="stop-color:#FF1D25"
   id="stop54" />
				<stop
   offset="0.5352"
   style="stop-color:#FF931E"
   id="stop56" />
				<stop
   offset="0.7563"
   style="stop-color:#FFFFFF"
   id="stop58" />
				<stop
   offset="1"
   style="stop-color:#3FA9F5"
   id="stop60" />
			</linearGradient>
			<path
   class="st6"
   d="M-420,2015c5-4,11-7,17-11c24-18,46-30,70-48c2-1,3-1,5-2c278-184,542-329,834-463c1-1,3-2,4-3     c20-9,40-17,60-26c1-1,3-2,4-3c14-6,27-11,41-18c21-11,42-19,63-31c8-4,15-7,23-10c106-52,206-104,310-162     c138-78,262-151,397-242c2-1,3-1,5-2c24-18,46-30,70-48c6-4,12-7,17-11"
   id="path63" />
		</g>
		<g
   id="g80">
			<linearGradient
   id="SVGID_5_"
   gradientUnits="userSpaceOnUse"
   x1="1503.1235"
   y1="1420"
   x2="-423.1235"
   y2="1420">
				<stop
   offset="0"
   style="stop-color:#93278F"
   id="stop67" />
				<stop
   offset="0.2789"
   style="stop-color:#FF1D25"
   id="stop69" />
				<stop
   offset="0.5352"
   style="stop-color:#FF931E"
   id="stop71" />
				<stop
   offset="0.7563"
   style="stop-color:#FFFFFF"
   id="stop73" />
				<stop
   offset="1"
   style="stop-color:#3FA9F5"
   id="stop75" />
			</linearGradient>
			<path
   class="st7"
   d="M-420,1960c5-4,11-7,17-11c24-18,46-30,70-48c2-1,3-1,5-2c278-184,542-329,834-463c1-1,3-2,4-3     c20-9,40-17,60-26c1-1,3-2,4-3c14-6,27-11,41-18c21-11,42-19,63-31c8-4,15-7,23-10c106-52,206-104,310-162     c138-78,262-151,397-242c2-1,3-1,5-2c24-18,46-30,70-48c6-4,12-7,17-11"
   id="path78" />
		</g>
		<g
   id="g95">
			<linearGradient
   id="SVGID_6_"
   gradientUnits="userSpaceOnUse"
   x1="1503.1235"
   y1="1365"
   x2="-423.1235"
   y2="1365">
				<stop
   offset="0"
   style="stop-color:#93278F"
   id="stop82" />
				<stop
   offset="0.2789"
   style="stop-color:#FF1D25"
   id="stop84" />
				<stop
   offset="0.5352"
   style="stop-color:#FF931E"
   id="stop86" />
				<stop
   offset="0.7563"
   style="stop-color:#FFFFFF"
   id="stop88" />
				<stop
   offset="1"
   style="stop-color:#3FA9F5"
   id="stop90" />
			</linearGradient>
			<path
   class="st8"
   d="M-420,1905c5-4,11-7,17-11c24-18,46-30,70-48c2-1,3-1,5-2c278-184,542-329,834-463c1-1,3-2,4-3     c20-9,40-17,60-26c1-1,3-2,4-3c14-6,27-11,41-18c21-11,42-19,63-31c8-4,15-7,23-10c106-52,206-104,310-162     c138-78,262-151,397-242c2-1,3-1,5-2c24-18,46-30,70-48c6-4,12-7,17-11"
   id="path93" />
		</g>
		<g
   id="g110">
			<linearGradient
   id="SVGID_7_"
   gradientUnits="userSpaceOnUse"
   x1="1503.1235"
   y1="1310"
   x2="-423.1235"
   y2="1310">
				<stop
   offset="0"
   style="stop-color:#93278F"
   id="stop97" />
				<stop
   offset="0.2789"
   style="stop-color:#FF1D25"
   id="stop99" />
				<stop
   offset="0.5352"
   style="stop-color:#FF931E"
   id="stop101" />
				<stop
   offset="0.7563"
   style="stop-color:#FFFFFF"
   id="stop103" />
				<stop
   offset="1"
   style="stop-color:#3FA9F5"
   id="stop105" />
			</linearGradient>
			<path
   class="st9"
   d="M-420,1850c5-4,11-7,17-11c24-18,46-30,70-48c2-1,3-1,5-2c278-184,542-329,834-463c1-1,3-2,4-3     c20-9,40-17,60-26c1-1,3-2,4-3c14-6,27-11,41-18c21-11,42-19,63-31c8-4,15-7,23-10c106-52,206-104,310-162     c138-78,262-151,397-242c2-1,3-1,5-2c24-18,46-30,70-48c6-4,12-7,17-11"
   id="path108" />
		</g>
		<g
   id="g125">
			<linearGradient
   id="SVGID_8_"
   gradientUnits="userSpaceOnUse"
   x1="1503.1235"
   y1="1255"
   x2="-423.1235"
   y2="1255">
				<stop
   offset="0"
   style="stop-color:#93278F"
   id="stop112" />
				<stop
   offset="0.2789"
   style="stop-color:#FF1D25"
   id="stop114" />
				<stop
   offset="0.5352"
   style="stop-color:#FF931E"
   id="stop116" />
				<stop
   offset="0.7563"
   style="stop-color:#FFFFFF"
   id="stop118" />
				<stop
   offset="1"
   style="stop-color:#3FA9F5"
   id="stop120" />
			</linearGradient>
			<path
   class="st10"
   d="M-420,1795c5-4,11-7,17-11c24-18,46-30,70-48c2-1,3-1,5-2c278-184,542-329,834-463c1-1,3-2,4-3     c20-9,40-17,60-26c1-1,3-2,4-3c14-6,27-11,41-18c21-11,42-19,63-31c8-4,15-7,23-10c106-52,206-104,310-162     c138-78,262-151,397-242c2-1,3-1,5-2c24-18,46-30,70-48c6-4,12-7,17-11"
   id="path123" />
		</g>
		<g
   id="g140">
			<linearGradient
   id="SVGID_9_"
   gradientUnits="userSpaceOnUse"
   x1="1503.1235"
   y1="1200"
   x2="-423.1235"
   y2="1200">
				<stop
   offset="0"
   style="stop-color:#93278F"
   id="stop127" />
				<stop
   offset="0.2789"
   style="stop-color:#FF1D25"
   id="stop129" />
				<stop
   offset="0.5352"
   style="stop-color:#FF931E"
   id="stop131" />
				<stop
   offset="0.7563"
   style="stop-color:#FFFFFF"
   id="stop133" />
				<stop
   offset="1"
   style="stop-color:#3FA9F5"
   id="stop135" />
			</linearGradient>
			<path
   class="st11"
   d="M-420,1740c5-4,11-7,17-11c24-18,46-30,70-48c2-1,3-1,5-2c278-184,542-329,834-463c1-1,3-2,4-3     c20-9,40-17,60-26c1-1,3-2,4-3c14-6,27-11,41-18c21-11,42-19,63-31c8-4,15-7,23-10c106-52,206-104,310-162     c138-78,262-151,397-242c2-1,3-1,5-2c24-18,46-30,70-48c6-4,12-7,17-11"
   id="path138" />
		</g>
		<g
   id="g155">
			<linearGradient
   id="SVGID_10_"
   gradientUnits="userSpaceOnUse"
   x1="1503.1235"
   y1="1145"
   x2="-423.1235"
   y2="1145">
				<stop
   offset="0"
   style="stop-color:#93278F"
   id="stop142" />
				<stop
   offset="0.2789"
   style="stop-color:#FF1D25"
   id="stop144" />
				<stop
   offset="0.5352"
   style="stop-color:#FF931E"
   id="stop146" />
				<stop
   offset="0.7563"
   style="stop-color:#FFFFFF"
   id="stop148" />
				<stop
   offset="1"
   style="stop-color:#3FA9F5"
   id="stop150" />
			</linearGradient>
			<path
   class="st12"
   d="M-420,1685c5-4,11-7,17-11c24-18,46-30,70-48c2-1,3-1,5-2c278-184,542-329,834-463c1-1,3-2,4-3     c20-9,40-17,60-26c1-1,3-2,4-3c14-6,27-11,41-18c21-11,42-19,63-31c8-4,15-7,23-10c106-52,206-104,310-162     c138-78,262-151,397-242c2-1,3-1,5-2c24-18,46-30,70-48c6-4,12-7,17-11"
   id="path153" />
		</g>
		<g
   id="g170">
			<linearGradient
   id="SVGID_11_"
   gradientUnits="userSpaceOnUse"
   x1="1503.1235"
   y1="1090"
   x2="-423.1235"
   y2="1090">
				<stop
   offset="0"
   style="stop-color:#93278F"
   id="stop157" />
				<stop
   offset="0.2789"
   style="stop-color:#FF1D25"
   id="stop159" />
				<stop
   offset="0.5352"
   style="stop-color:#FF931E"
   id="stop161" />
				<stop
   offset="0.7563"
   style="stop-color:#FFFFFF"
   id="stop163" />
				<stop
   offset="1"
   style="stop-color:#3FA9F5"
   id="stop165" />
			</linearGradient>
			<path
   class="st13"
   d="M-420,1630c5-4,11-7,17-11c24-18,46-30,70-48c2-1,3-1,5-2c278-184,542-329,834-463c1-1,3-2,4-3     c20-9,40-17,60-26c1-1,3-2,4-3c14-6,27-11,41-18c21-11,42-19,63-31c8-4,15-7,23-10c106-52,206-104,310-162     c138-78,262-151,397-242c2-1,3-1,5-2c24-18,46-30,70-48c6-4,12-7,17-11"
   id="path168" />
		</g>
		<g
   id="g185">
			<linearGradient
   id="SVGID_12_"
   gradientUnits="userSpaceOnUse"
   x1="1503.1235"
   y1="1035"
   x2="-423.1235"
   y2="1035">
				<stop
   offset="0"
   style="stop-color:#93278F"
   id="stop172" />
				<stop
   offset="0.2789"
   style="stop-color:#FF1D25"
   id="stop174" />
				<stop
   offset="0.5352"
   style="stop-color:#FF931E"
   id="stop176" />
				<stop
   offset="0.7563"
   style="stop-color:#FFFFFF"
   id="stop178" />
				<stop
   offset="1"
   style="stop-color:#3FA9F5"
   id="stop180" />
			</linearGradient>
			<path
   class="st14"
   d="M-420,1575c5-4,11-7,17-11c24-18,46-30,70-48c2-1,3-1,5-2c278-184,542-329,834-463c1-1,3-2,4-3     c20-9,40-17,60-26c1-1,3-2,4-3c14-6,27-11,41-18c21-11,42-19,63-31c8-4,15-7,23-10c106-52,206-104,310-162     c138-78,262-151,397-242c2-1,3-1,5-2c24-18,46-30,70-48c6-4,12-7,17-11"
   id="path183" />
		</g>
		<g
   id="g200">
			<linearGradient
   id="SVGID_13_"
   gradientUnits="userSpaceOnUse"
   x1="1503.1235"
   y1="980"
   x2="-423.1235"
   y2="980">
				<stop
   offset="0"
   style="stop-color:#93278F"
   id="stop187" />
				<stop
   offset="0.2789"
   style="stop-color:#FF1D25"
   id="stop189" />
				<stop
   offset="0.5352"
   style="stop-color:#FF931E"
   id="stop191" />
				<stop
   offset="0.7563"
   style="stop-color:#FFFFFF"
   id="stop193" />
				<stop
   offset="1"
   style="stop-color:#3FA9F5"
   id="stop195" />
			</linearGradient>
			<path
   class="st15"
   d="M-420,1520c5-4,11-7,17-11c24-18,46-30,70-48c2-1,3-1,5-2c278-184,542-329,834-463c1-1,3-2,4-3     c20-9,40-17,60-26c1-1,3-2,4-3c14-6,27-11,41-18c21-11,42-19,63-31c8-4,15-7,23-10c106-52,206-104,310-162     c138-78,262-151,397-242c2-1,3-1,5-2c24-18,46-30,70-48c6-4,12-7,17-11"
   id="path198" />
		</g>
		<g
   id="g215">
			<linearGradient
   id="SVGID_14_"
   gradientUnits="userSpaceOnUse"
   x1="1503.1235"
   y1="925"
   x2="-423.1235"
   y2="925">
				<stop
   offset="0"
   style="stop-color:#93278F"
   id="stop202" />
				<stop
   offset="0.2789"
   style="stop-color:#FF1D25"
   id="stop204" />
				<stop
   offset="0.5352"
   style="stop-color:#FF931E"
   id="stop206" />
				<stop
   offset="0.7563"
   style="stop-color:#FFFFFF"
   id="stop208" />
				<stop
   offset="1"
   style="stop-color:#3FA9F5"
   id="stop210" />
			</linearGradient>
			<path
   class="st16"
   d="M-420,1465c5-4,11-7,17-11c24-18,46-30,70-48c2-1,3-1,5-2c278-184,542-329,834-463c1-1,3-2,4-3     c20-9,40-17,60-26c1-1,3-2,4-3c14-6,27-11,41-18c21-11,42-19,63-31c8-4,15-7,23-10c106-52,206-104,310-162     c138-78,262-151,397-242c2-1,3-1,5-2c24-18,46-30,70-48c6-4,12-7,17-11"
   id="path213" />
		</g>
		<g
   id="g230">
			<linearGradient
   id="SVGID_15_"
   gradientUnits="userSpaceOnUse"
   x1="1503.1235"
   y1="870"
   x2="-423.1235"
   y2="870">
				<stop
   offset="0"
   style="stop-color:#93278F"
   id="stop217" />
				<stop
   offset="0.2789"
   style="stop-color:#FF1D25"
   id="stop219" />
				<stop
   offset="0.5352"
   style="stop-color:#FF931E"
   id="stop221" />
				<stop
   offset="0.7563"
   style="stop-color:#FFFFFF"
   id="stop223" />
				<stop
   offset="1"
   style="stop-color:#3FA9F5"
   id="stop225" />
			</linearGradient>
			<path
   class="st17"
   d="M-420,1410c5-4,11-7,17-11c24-18,46-30,70-48c2-1,3-1,5-2c278-184,542-329,834-463c1-1,3-2,4-3     c20-9,40-17,60-26c1-1,3-2,4-3c14-6,27-11,41-18c21-11,42-19,63-31c8-4,15-7,23-10c106-52,206-104,310-162     c138-78,262-151,397-242c2-1,3-1,5-2c24-18,46-30,70-48c6-4,12-7,17-11"
   id="path228" />
		</g>
		<g
   id="g245">
			<linearGradient
   id="SVGID_16_"
   gradientUnits="userSpaceOnUse"
   x1="1503.1235"
   y1="815"
   x2="-423.1235"
   y2="815">
				<stop
   offset="0"
   style="stop-color:#93278F"
   id="stop232" />
				<stop
   offset="0.2789"
   style="stop-color:#FF1D25"
   id="stop234" />
				<stop
   offset="0.5352"
   style="stop-color:#FF931E"
   id="stop236" />
				<stop
   offset="0.7563"
   style="stop-color:#FFFFFF"
   id="stop238" />
				<stop
   offset="1"
   style="stop-color:#3FA9F5"
   id="stop240" />
			</linearGradient>
			<path
   class="st18"
   d="M-420,1355c5-4,11-7,17-11c24-18,46-30,70-48c2-1,3-1,5-2c278-184,542-329,834-463c1-1,3-2,4-3     c20-9,40-17,60-26c1-1,3-2,4-3c14-6,27-11,41-18c21-11,42-19,63-31c8-4,15-7,23-10c106-52,206-104,310-162     c138-78,262-151,397-242c2-1,3-1,5-2c24-18,46-30,70-48c6-4,12-7,17-11"
   id="path243" />
		</g>
		<g
   id="g260">
			<linearGradient
   id="SVGID_17_"
   gradientUnits="userSpaceOnUse"
   x1="1503.1235"
   y1="760"
   x2="-423.1235"
   y2="760">
				<stop
   offset="0"
   style="stop-color:#93278F"
   id="stop247" />
				<stop
   offset="0.2789"
   style="stop-color:#FF1D25"
   id="stop249" />
				<stop
   offset="0.5352"
   style="stop-color:#FF931E"
   id="stop251" />
				<stop
   offset="0.7563"
   style="stop-color:#FFFFFF"
   id="stop253" />
				<stop
   offset="1"
   style="stop-color:#3FA9F5"
   id="stop255" />
			</linearGradient>
			<path
   class="st19"
   d="M-420,1300c5-4,11-7,17-11c24-18,46-30,70-48c2-1,3-1,5-2c278-184,542-329,834-463c1-1,3-2,4-3     c20-9,40-17,60-26c1-1,3-2,4-3c14-6,27-11,41-18c21-11,42-19,63-31c8-4,15-7,23-10c106-52,206-104,310-162     c138-78,262-151,397-242c2-1,3-1,5-2c24-18,46-30,70-48c6-4,12-7,17-11"
   id="path258" />
		</g>
		<g
   id="g275">
			<linearGradient
   id="SVGID_18_"
   gradientUnits="userSpaceOnUse"
   x1="1503.1235"
   y1="705"
   x2="-423.1235"
   y2="705">
				<stop
   offset="0"
   style="stop-color:#93278F"
   id="stop262" />
				<stop
   offset="0.2789"
   style="stop-color:#FF1D25"
   id="stop264" />
				<stop
   offset="0.5352"
   style="stop-color:#FF931E"
   id="stop266" />
				<stop
   offset="0.7563"
   style="stop-color:#FFFFFF"
   id="stop268" />
				<stop
   offset="1"
   style="stop-color:#3FA9F5"
   id="stop270" />
			</linearGradient>
			<path
   class="st20"
   d="M-420,1245c5-4,11-7,17-11c24-18,46-30,70-48c2-1,3-1,5-2c278-184,542-329,834-463c1-1,3-2,4-3     c20-9,40-17,60-26c1-1,3-2,4-3c14-6,27-11,41-18c21-11,42-19,63-31c8-4,15-7,23-10c106-52,206-104,310-162     c138-78,262-151,397-242c2-1,3-1,5-2c24-18,46-30,70-48c6-4,12-7,17-11"
   id="path273" />
		</g>
		<g
   id="g290">
			<linearGradient
   id="SVGID_19_"
   gradientUnits="userSpaceOnUse"
   x1="1503.1235"
   y1="650"
   x2="-423.1235"
   y2="650">
				<stop
   offset="0"
   style="stop-color:#93278F"
   id="stop277" />
				<stop
   offset="0.2789"
   style="stop-color:#FF1D25"
   id="stop279" />
				<stop
   offset="0.5352"
   style="stop-color:#FF931E"
   id="stop281" />
				<stop
   offset="0.7563"
   style="stop-color:#FFFFFF"
   id="stop283" />
				<stop
   offset="1"
   style="stop-color:#3FA9F5"
   id="stop285" />
			</linearGradient>
			<path
   class="st21"
   d="M-420,1190c5-4,11-7,17-11c24-18,46-30,70-48c2-1,3-1,5-2c278-184,542-329,834-463c1-1,3-2,4-3     c20-9,40-17,60-26c1-1,3-2,4-3c14-6,27-11,41-18c21-11,42-19,63-31c8-4,15-7,23-10c106-52,206-104,310-162     c138-78,262-151,397-242c2-1,3-1,5-2c24-18,46-30,70-48c6-4,12-7,17-11"
   id="path288" />
		</g>
		<g
   id="g305">
			<linearGradient
   id="SVGID_20_"
   gradientUnits="userSpaceOnUse"
   x1="1503.1235"
   y1="595"
   x2="-423.1235"
   y2="595">
				<stop
   offset="0"
   style="stop-color:#93278F"
   id="stop292" />
				<stop
   offset="0.2789"
   style="stop-color:#FF1D25"
   id="stop294" />
				<stop
   offset="0.5352"
   style="stop-color:#FF931E"
   id="stop296" />
				<stop
   offset="0.7563"
   style="stop-color:#FFFFFF"
   id="stop298" />
				<stop
   offset="1"
   style="stop-color:#3FA9F5"
   id="stop300" />
			</linearGradient>
			<path
   class="st22"
   d="M-420,1135c5-4,11-7,17-11c24-18,46-30,70-48c2-1,3-1,5-2c278-184,542-329,834-463c1-1,3-2,4-3     c20-9,40-17,60-26c1-1,3-2,4-3c14-6,27-11,41-18c21-11,42-19,63-31c8-4,15-7,23-10c106-52,206-104,310-162     c138-78,262-151,397-242c2-1,3-1,5-2c24-18,46-30,70-48c6-4,12-7,17-11"
   id="path303" />
		</g>
		<g
   id="g320">
			<linearGradient
   id="SVGID_21_"
   gradientUnits="userSpaceOnUse"
   x1="1503.1235"
   y1="540"
   x2="-423.1235"
   y2="540">
				<stop
   offset="0"
   style="stop-color:#93278F"
   id="stop307" />
				<stop
   offset="0.2789"
   style="stop-color:#FF1D25"
   id="stop309" />
				<stop
   offset="0.5352"
   style="stop-color:#FF931E"
   id="stop311" />
				<stop
   offset="0.7563"
   style="stop-color:#FFFFFF"
   id="stop313" />
				<stop
   offset="1"
   style="stop-color:#3FA9F5"
   id="stop315" />
			</linearGradient>
			<path
   class="st23"
   d="M-420,1080c5-4,11-7,17-11c24-18,46-30,70-48c2-1,3-1,5-2c278-184,542-329,834-463c1-1,3-2,4-3     c20-9,40-17,60-26c1-1,3-2,4-3c14-6,27-11,41-18c21-11,42-19,63-31c8-4,15-7,23-10c106-52,206-104,310-162     c138-78,262-151,397-242c2-1,3-1,5-2c24-18,46-30,70-48c6-4,12-7,17-11"
   id="path318" />
		</g>
	</g>
</g>
<g
   id="Capa_10"
   style="fill:#000000">
</g>
<g
   id="Capa_7"
   style="fill:#000000">
</g>
<g
   id="Capa_6"
   style="fill:#000000">
</g>
<g
   id="VOX"
   style="fill:#000000">
	
<g
   id="g1503"
   style="fill:#000000"
   transform="translate(-7.4184987,11.932173)"><path
     sodipodi:type="star"
     style="fill:#000000;stroke:#000000;stroke-width:1.00157;stop-color:#000000"
     id="path1230"
     inkscape:flatsided="false"
     sodipodi:sides="3"
     sodipodi:cx="80.1092"
     sodipodi:cy="376.07605"
     sodipodi:r1="255.0116"
     sodipodi:r2="127.50579"
     sodipodi:arg1="0.38588887"
     sodipodi:arg2="1.4330864"
     inkscape:rounded="0"
     inkscape:randomized="0"
     d="M 316.36833,472.05803 97.612568,502.37474 -121.14319,532.69147 -38.020357,328.08507 45.102467,123.47866 180.73539,297.76834 Z"
     transform="matrix(-0.11148778,0.85217562,-0.85217562,-0.11148778,869.89761,597.25961)"
     inkscape:transform-center-x="0.37002138"
     inkscape:transform-center-y="-26.353046" /></g></g>
<g
   id="FONT_NAME"
   class="st1">
	
		<text
   transform="matrix(1 0 0 1 1200.9229 116.769)"
   style="display:inline;fill:#999999; font-family:'Righteous-Regular'; font-size:50px;"
   id="text337">Righteous</text>
</g>
</svg>
